<svg width="16" height="16" viewBox="0 0 16 16" fill="none" xmlns="http://www.w3.org/2000/svg">
    <path d="M7.99951 0C3.57792 0 -0.000488281 3.57803 -0.000488281 8C-0.000488281 12.4216 3.57754 16 7.99951 16C12.4211 16 15.9995 12.422 15.9995 8C15.9995 3.57844 12.4215 0 7.99951 0ZM7.99951 14.9333C4.17648 14.9333 1.06617 11.8231 1.06617 8C1.06617 4.17694 4.17648 1.06666 7.99951 1.06666C11.8225 1.06666 14.9329 4.17697 14.9329 8C14.9329 11.823 11.8225 14.9333 7.99951 14.9333Z" fill="#494F5E"/>
    <path d="M10.8815 8.07444H7.95078V3.96108C7.95078 3.66655 7.70592 3.42773 7.40386 3.42773C7.1018 3.42773 6.85693 3.66652 6.85693 3.96108V8.60775C6.85693 8.90228 7.1018 9.14109 7.40386 9.14109H10.8814C11.1835 9.14109 11.4284 8.90231 11.4284 8.60775C11.4284 8.31319 11.1835 8.07444 10.8815 8.07444Z" fill="#494F5E"/>
</svg>
