<svg width="16" height="16" fill="none" xmlns="http://www.w3.org/2000/svg"><g clip-path="url(#clip0)" fill="#1965AC" fill-opacity=".6"><path d="M11.429 2.857H1.714C.768 2.857 0 3.625 0 4.572v9.714C0 15.233.768 16 1.714 16h9.715c.946 0 1.714-.767 1.714-1.714V4.572c0-.947-.768-1.715-1.714-1.715zM12 14.286a.571.571 0 01-.571.571H1.714a.571.571 0 01-.571-.571V4.572c0-.316.256-.572.571-.572h9.715c.315 0 .571.256.571.572v9.714z"/><path d="M14.286 0H4c-.947 0-1.714.768-1.714 1.714a.571.571 0 101.143 0c0-.315.256-.571.571-.571h10.286c.316 0 .571.256.571.571V12a.571.571 0 01-.571.571.572.572 0 000 1.143c.947 0 1.714-.767 1.714-1.714V1.714C16 .768 15.233 0 14.286 0z"/></g><defs><clipPath id="clip0"><path fill="#fff" d="M0 0h16v16H0z"/></clipPath></defs></svg>
