<svg width="18" height="18" viewBox="0 0 18 18" fill="none" xmlns="http://www.w3.org/2000/svg">
    <g opacity="0.8">
        <path d="M17.8856 8.64983C17.7248 8.42986 13.8934 3.26367 8.99991 3.26367C4.10647 3.26367 0.274852 8.42986 0.114223 8.64962C-0.0380743 8.85831 -0.0380743 9.14135 0.114223 9.35004C0.274852 9.57001 4.10647 14.7362 8.99991 14.7362C13.8934 14.7362 17.7248 9.56998 17.8856 9.35022C18.0381 9.14156 18.0381 8.85831 17.8856 8.64983ZM8.99991 13.5494C5.39537 13.5494 2.27345 10.1205 1.3493 8.99953C2.27226 7.87759 5.38764 4.45048 8.99991 4.45048C12.6043 4.45048 15.726 7.87878 16.6505 9.00034C15.7276 10.1222 12.6122 13.5494 8.99991 13.5494Z" fill="#494F5E"/>
        <path d="M8.99942 5.43945C7.03622 5.43945 5.43896 7.03671 5.43896 8.99991C5.43896 10.9631 7.03622 12.5604 8.99942 12.5604C10.9626 12.5604 12.5599 10.9631 12.5599 8.99991C12.5599 7.03671 10.9626 5.43945 8.99942 5.43945ZM8.99942 11.3735C7.69055 11.3735 6.62581 10.3087 6.62581 8.99991C6.62581 7.69108 7.69058 6.6263 8.99942 6.6263C10.3082 6.6263 11.373 7.69108 11.373 8.99991C11.373 10.3087 10.3083 11.3735 8.99942 11.3735Z" fill="#494F5E"/>
    </g>
</svg>
